# xmcd
#
# Track frame offsets:
#	150
#	13233
#	26775
#	38469
#	49364
#	64404
#	79650
#	92198
#	102303
#	116613
#	125909
#
# Disc length: 1844 seconds
#
# Revision: 1
# Processed by: cddbd v1.5.2PL0 Copyright (c) Steve Scherf et al.
# Submitted via: audiograbber 1.83.01
#
DISCID=9907320b
DTITLE=Johnny Paycheck - She's All I Got
DYEAR=1971
DGENRE=Country
TTITLE0=She's All I Got
TTITLE1=You Touched My Life
TTITLE2=Love Sure Is Beautiful
TTITLE3=She's Everything To Me
TTITLE4=My Elusive Dreams
TTITLE5=He Will Break Your Heart
TTITLE6=You Once Lived Here
TTITLE7=Only Love Can Save Us
TTITLE8=Lets Walk Hand In Hand
TTITLE9=Livin' In A House Full Of Love
TTITLE10=A Man That's Satisfied
EXTD=
EXTT0=
EXTT1=
EXTT2=
EXTT3=
EXTT4=
EXTT5=
EXTT6=
EXTT7=
EXTT8=
EXTT9=
EXTT10=
PLAYORDER=
